{
	"accessors" : 
	[
		{
			"bufferView" : 2,
			"byteOffset" : 0,
			"componentType" : 5126,
			"count" : 714,
			"max" : 
			[
				1,
				1,
				1,
				1
			],
			"min" : 
			[
				1,
				1,
				1,
				1
			],
			"name" : "accessor_color_m0-PolyGem25_-268898",
			"type" : "VEC4"
		},
		{
			"bufferView" : 2,
			"byteOffset" : 11424,
			"componentType" : 5126,
			"count" : 8520,
			"max" : 
			[
				1,
				1,
				1,
				1
			],
			"min" : 
			[
				5.692175545846112e-05,
				0.05284162983298302,
				0.0328759141266346,
				1
			],
			"name" : "accessor_color_m1-PolyPaper21_-268956",
			"type" : "VEC4"
		},
		{
			"bufferView" : 0,
			"byteOffset" : 0,
			"componentType" : 5123,
			"count" : 1002,
			"max" : 
			[
				713
			],
			"min" : 
			[
				0
			],
			"name" : "accessor_indices_0_m0-PolyGem25_-268898",
			"type" : "SCALAR"
		},
		{
			"bufferView" : 0,
			"byteOffset" : 2004,
			"componentType" : 5123,
			"count" : 12660,
			"max" : 
			[
				8519
			],
			"min" : 
			[
				0
			],
			"name" : "accessor_indices_0_m1-PolyPaper21_-268956",
			"type" : "SCALAR"
		},
		{
			"bufferView" : 1,
			"byteOffset" : 8568,
			"componentType" : 5126,
			"count" : 714,
			"max" : 
			[
				0.9882839,
				0.9995633,
				0.9998174
			],
			"min" : 
			[
				-0.9852856,
				-0.9995086,
				-0.9963698
			],
			"name" : "accessor_normal_m0-PolyGem25_-268898",
			"type" : "VEC3"
		},
		{
			"bufferView" : 1,
			"byteOffset" : 119376,
			"componentType" : 5126,
			"count" : 8520,
			"max" : 
			[
				0.9995099,
				0.9998798,
				0.9963184
			],
			"min" : 
			[
				-0.9995099,
				-0.9998798,
				-0.9963186000000001
			],
			"name" : "accessor_normal_m1-PolyPaper21_-268956",
			"type" : "VEC3"
		},
		{
			"bufferView" : 1,
			"byteOffset" : 0,
			"componentType" : 5126,
			"count" : 714,
			"max" : 
			[
				0.6977176,
				1.562158,
				0.06414179
			],
			"min" : 
			[
				0.2351535,
				1.464336,
				-0.2071
			],
			"name" : "accessor_position_m0-PolyGem25_-268898",
			"type" : "VEC3"
		},
		{
			"bufferView" : 1,
			"byteOffset" : 17136,
			"componentType" : 5126,
			"count" : 8520,
			"max" : 
			[
				0.7141811,
				1.670235,
				0.06631034
			],
			"min" : 
			[
				0.2220823,
				1.241018,
				-0.3726752
			],
			"name" : "accessor_position_m1-PolyPaper21_-268956",
			"type" : "VEC3"
		}
	],
	"asset" : 
	{
		"copyright" : "Unknown",
		"generator" : "glTF 1-to-2 Upgrader for Google Blocks",
		"version" : "2.0"
	},
	"bufferViews" : 
	[
		{
			"buffer" : 0,
			"byteLength" : 27324,
			"byteOffset" : 0,
			"name" : "ushortBufferView",
			"target" : 34963
		},
		{
			"buffer" : 0,
			"byteLength" : 221616,
			"byteOffset" : 27324,
			"byteStride" : 12,
			"name" : "vec3BufferView",
			"target" : 34962
		},
		{
			"buffer" : 0,
			"byteLength" : 147744,
			"byteOffset" : 248940,
			"byteStride" : 16,
			"name" : "vec4BufferView",
			"target" : 34962
		}
	],
	"buffers" : 
	[
		{
			"byteLength" : 396684,
			"name" : "model",
			"uri" : "model.bin"
		}
	],
	"materials" : 
	[
		{
			"alphaMode" : "OPAQUE",
			"doubleSided" : false,
			"name" : "BlocksPaper",
			"pbrMetallicRoughness" : 
			{
				"baseColorFactor" : 
				[
					1,
					1,
					1,
					1
				],
				"metallicFactor" : 0,
				"roughnessFactor" : 0.6
			}
		},
		{
			"alphaMode" : "BLEND",
			"doubleSided" : false,
			"name" : "BlocksGlass",
			"pbrMetallicRoughness" : 
			{
				"baseColorFactor" : 
				[
					0.2,
					0.2,
					1,
					0.3
				],
				"metallicFactor" : 1,
				"roughnessFactor" : 0.4
			}
		},
		{
			"alphaMode" : "OPAQUE",
			"doubleSided" : true,
			"name" : "BlocksGem",
			"pbrMetallicRoughness" : 
			{
				"baseColorFactor" : 
				[
					1,
					0.4,
					1,
					1
				],
				"metallicFactor" : 0,
				"roughnessFactor" : 0.1
			}
		}
	],
	"meshes" : 
	[
		{
			"name" : "mesh_m0-PolyGem25_-268898",
			"primitives" : 
			[
				{
					"attributes" : 
					{
						"COLOR_0" : 0,
						"NORMAL" : 4,
						"POSITION" : 6
					},
					"indices" : 2,
					"material" : 2,
					"mode" : 4
				}
			]
		},
		{
			"name" : "mesh_m1-PolyPaper21_-268956",
			"primitives" : 
			[
				{
					"attributes" : 
					{
						"COLOR_0" : 1,
						"NORMAL" : 5,
						"POSITION" : 7
					},
					"indices" : 3,
					"material" : 0,
					"mode" : 4
				}
			]
		}
	],
	"nodes" : 
	[
		{
			"matrix" : 
			[
				1,
				0,
				0,
				0,
				0,
				1,
				0,
				0,
				0,
				0,
				1,
				0,
				0,
				0,
				0,
				1
			],
			"mesh" : 1,
			"name" : "node_MeshObject-1398049408-PolyPaper21"
		},
		{
			"matrix" : 
			[
				1,
				0,
				0,
				0,
				0,
				1,
				0,
				0,
				0,
				0,
				1,
				0,
				0,
				0,
				0,
				1
			],
			"mesh" : 0,
			"name" : "node_MeshObject-879329344-PolyGem25"
		}
	],
	"scene" : 0,
	"scenes" : 
	[
		{
			"extras" : {},
			"name" : "defaultScene",
			"nodes" : 
			[
				1,
				0
			]
		}
	]
}